#N canvas 469 81 673 586 12;
#X obj 38 100 adc~ 1 2 3 4 5 6, f 47;
#X obj 38 511 dac~ 1 2 3 4 5 6, f 47;
#X obj 38 248 *~;
#X obj 103 248 *~;
#X obj 167 248 *~;
#X obj 233 248 *~;
#X obj 297 248 *~;
#X obj 363 248 *~;
#X obj 38 369 *~;
#X obj 103 369 *~;
#X obj 168 369 *~;
#X obj 233 369 *~;
#X obj 298 369 *~;
#X obj 364 369 *~;
#N canvas 691 213 770 616 level-metering 1;
#X obj 68 154 inlet~;
#X obj 179 154 inlet~;
#X obj 68 493 list prepend display;
#X obj 68 517 list trim;
#X obj 68 453 pack symbol symbol symbol symbol symbol symbol, f 80;
#X msg 85 320 L1 \$1 0 0;
#X obj 85 347 send toHost;
#X obj 200 347 send toHost;
#X msg 200 320 L2 \$1 0 0;
#X obj 85 263 / 100;
#X obj 200 263 / 100;
#X obj 68 220 env~ 8192;
#X obj 179 220 env~ 8192;
#N canvas 233 118 386 249 setdB 0;
#X obj 80 49 inlet;
#X obj 180 92 - 100;
#X obj 180 123 makefilename %.1f;
#X msg 80 123 symbol -inf;
#X obj 80 89 select 0;
#X obj 180 166 outlet;
#X connect 0 0 4 0;
#X connect 1 0 2 0;
#X connect 2 0 5 0;
#X connect 3 0 5 0;
#X connect 4 0 3 0;
#X connect 4 1 1 0;
#X restore 68 402 pd setdB;
#N canvas 233 118 386 249 setdB 0;
#X obj 80 49 inlet;
#X obj 180 92 - 100;
#X obj 180 123 makefilename %.1f;
#X msg 80 123 symbol -inf;
#X obj 80 89 select 0;
#X obj 180 166 outlet;
#X connect 0 0 4 0;
#X connect 1 0 2 0;
#X connect 2 0 5 0;
#X connect 3 0 5 0;
#X connect 4 0 3 0;
#X connect 4 1 1 0;
#X restore 179 402 pd setdB;
#X obj 290 154 inlet~;
#X obj 402 154 inlet~;
#X obj 304 347 send toHost;
#X obj 418 347 send toHost;
#X obj 304 263 / 100;
#X obj 418 263 / 100;
#X obj 290 220 env~ 8192;
#X obj 402 220 env~ 8192;
#N canvas 233 118 386 249 setdB 0;
#X obj 80 49 inlet;
#X obj 180 92 - 100;
#X obj 180 123 makefilename %.1f;
#X msg 80 123 symbol -inf;
#X obj 80 89 select 0;
#X obj 180 166 outlet;
#X connect 0 0 4 0;
#X connect 1 0 2 0;
#X connect 2 0 5 0;
#X connect 3 0 5 0;
#X connect 4 0 3 0;
#X connect 4 1 1 0;
#X restore 290 402 pd setdB;
#N canvas 233 118 386 249 setdB 0;
#X obj 80 49 inlet;
#X obj 180 92 - 100;
#X obj 180 123 makefilename %.1f;
#X msg 80 123 symbol -inf;
#X obj 80 89 select 0;
#X obj 180 166 outlet;
#X connect 0 0 4 0;
#X connect 1 0 2 0;
#X connect 2 0 5 0;
#X connect 3 0 5 0;
#X connect 4 0 3 0;
#X connect 4 1 1 0;
#X restore 402 402 pd setdB;
#X obj 513 154 inlet~;
#X obj 625 154 inlet~;
#X obj 527 347 send toHost;
#X obj 646 347 send toHost;
#X obj 527 263 / 100;
#X obj 646 263 / 100;
#X obj 513 220 env~ 8192;
#X obj 625 220 env~ 8192;
#N canvas 233 118 386 249 setdB 0;
#X obj 80 49 inlet;
#X obj 180 92 - 100;
#X obj 180 123 makefilename %.1f;
#X msg 80 123 symbol -inf;
#X obj 80 89 select 0;
#X obj 180 166 outlet;
#X connect 0 0 4 0;
#X connect 1 0 2 0;
#X connect 2 0 5 0;
#X connect 3 0 5 0;
#X connect 4 0 3 0;
#X connect 4 1 1 0;
#X restore 513 402 pd setdB;
#N canvas 233 118 386 249 setdB 0;
#X obj 80 49 inlet;
#X obj 180 92 - 100;
#X obj 180 123 makefilename %.1f;
#X msg 80 123 symbol -inf;
#X obj 80 89 select 0;
#X obj 180 166 outlet;
#X connect 0 0 4 0;
#X connect 1 0 2 0;
#X connect 2 0 5 0;
#X connect 3 0 5 0;
#X connect 4 0 3 0;
#X connect 4 1 1 0;
#X restore 625 402 pd setdB;
#X msg 304 320 L3 \$1 0 0;
#X msg 418 320 L4 \$1 0 0;
#X msg 527 320 L5 \$1 0 0;
#X msg 646 320 L6 \$1 0 0;
#X obj 68 558 send toHost;
#X obj 68 186 /~ 5;
#X obj 85 290 clip 0 1;
#X obj 200 290 clip 0 1;
#X obj 304 290 clip 0 1;
#X obj 418 290 clip 0 1;
#X obj 527 290 clip 0 1;
#X obj 646 290 clip 0 1;
#X obj 179 186 /~ 5;
#X obj 290 186 /~ 5;
#X obj 402 186 /~ 5;
#X obj 513 186 /~ 5;
#X obj 625 186 /~ 5;
#X text 137 32 Display the db values and set leds with a red light according to the RMS level metering by forwarding messages to [send toHost]., f 64;
#X text 137 71 Note that the audio output range in VCV is usually from -5v to 5v \, hence we need to divide it by "5" so we can have a proper level metering in Pd., f 64;
#X connect 0 0 40 0;
#X connect 1 0 47 0;
#X connect 2 0 3 0;
#X connect 3 0 39 0;
#X connect 4 0 2 0;
#X connect 5 0 6 0;
#X connect 8 0 7 0;
#X connect 9 0 41 0;
#X connect 10 0 42 0;
#X connect 11 0 9 0;
#X connect 11 0 13 0;
#X connect 12 0 10 0;
#X connect 12 0 14 0;
#X connect 13 0 4 0;
#X connect 14 0 4 1;
#X connect 15 0 48 0;
#X connect 16 0 49 0;
#X connect 19 0 43 0;
#X connect 20 0 44 0;
#X connect 21 0 19 0;
#X connect 21 0 23 0;
#X connect 22 0 20 0;
#X connect 22 0 24 0;
#X connect 23 0 4 2;
#X connect 24 0 4 3;
#X connect 25 0 50 0;
#X connect 26 0 51 0;
#X connect 29 0 45 0;
#X connect 30 0 46 0;
#X connect 31 0 29 0;
#X connect 31 0 33 0;
#X connect 32 0 30 0;
#X connect 32 0 34 0;
#X connect 33 0 4 4;
#X connect 34 0 4 5;
#X connect 35 0 17 0;
#X connect 36 0 18 0;
#X connect 37 0 27 0;
#X connect 38 0 28 0;
#X connect 40 0 11 0;
#X connect 41 0 5 0;
#X connect 42 0 8 0;
#X connect 43 0 35 0;
#X connect 44 0 36 0;
#X connect 45 0 37 0;
#X connect 46 0 38 0;
#X connect 47 0 12 0;
#X connect 48 0 21 0;
#X connect 49 0 22 0;
#X connect 50 0 31 0;
#X connect 51 0 32 0;
#X restore 410 481 pd level-metering;
#X f 27;
#N canvas 561 276 851 490 set-gain-via-knobs 0;
#X msg 88 329 \$1 10;
#X obj 88 360 line~;
#X obj 88 130 route K1 K2 K3 K4 K5 K6, f 95;
#X obj 88 160 * 2;
#X obj 88 190 moses 1;
#X obj 134 240 * 12;
#X obj 134 294 dbtorms;
#X obj 134 264 + 100;
#X obj 134 215 - 1;
#X obj 88 410 outlet~;
#X msg 198 329 \$1 10;
#X obj 198 360 line~;
#X obj 198 160 * 2;
#X obj 198 190 moses 1;
#X obj 244 240 * 12;
#X obj 244 292 dbtorms;
#X obj 244 264 + 100;
#X obj 244 215 - 1;
#X obj 198 410 outlet~;
#X msg 308 329 \$1 10;
#X obj 308 360 line~;
#X obj 308 160 * 2;
#X obj 308 190 moses 1;
#X obj 354 240 * 12;
#X obj 354 292 dbtorms;
#X obj 354 264 + 100;
#X obj 354 215 - 1;
#X obj 308 410 outlet~;
#X msg 419 329 \$1 10;
#X obj 419 360 line~;
#X obj 419 160 * 2;
#X obj 419 190 moses 1;
#X obj 465 240 * 12;
#X obj 465 292 dbtorms;
#X obj 465 264 + 100;
#X obj 465 215 - 1;
#X obj 419 410 outlet~;
#X msg 529 329 \$1 10;
#X obj 529 360 line~;
#X obj 529 160 * 2;
#X obj 529 190 moses 1;
#X obj 575 240 * 12;
#X obj 575 292 dbtorms;
#X obj 575 264 + 100;
#X obj 575 215 - 1;
#X obj 529 410 outlet~;
#X msg 639 329 \$1 10;
#X obj 639 360 line~;
#X obj 639 160 * 2;
#X obj 639 190 moses 1;
#X obj 685 240 * 12;
#X obj 685 292 dbtorms;
#X obj 685 264 + 100;
#X obj 685 215 - 1;
#X obj 639 410 outlet~;
#X obj 88 83 inlet;
#X obj 88 242 pow 4;
#X obj 198 242 pow 4;
#X obj 308 242 pow 4;
#X obj 419 242 pow 4;
#X obj 529 242 pow 4;
#X obj 639 242 pow 4;
#X text 210 37 We route the knob values via symbols from [receive fromHost] for each knob (whose range is from 0 to 1). At mid position (0.5) we want unity gain (1). For values below we have a quartic map from 0 to 1 and for values above we have up to 12 db gain., f 71;
#X text 688 334 interpolate with [line~], f 12;
#X connect 0 0 1 0;
#X connect 1 0 9 0;
#X connect 2 0 3 0;
#X connect 2 1 12 0;
#X connect 2 2 21 0;
#X connect 2 3 30 0;
#X connect 2 4 39 0;
#X connect 2 5 48 0;
#X connect 3 0 4 0;
#X connect 4 0 56 0;
#X connect 4 1 8 0;
#X connect 5 0 7 0;
#X connect 6 0 0 0;
#X connect 7 0 6 0;
#X connect 8 0 5 0;
#X connect 10 0 11 0;
#X connect 11 0 18 0;
#X connect 12 0 13 0;
#X connect 13 0 57 0;
#X connect 13 1 17 0;
#X connect 14 0 16 0;
#X connect 15 0 10 0;
#X connect 16 0 15 0;
#X connect 17 0 14 0;
#X connect 19 0 20 0;
#X connect 20 0 27 0;
#X connect 21 0 22 0;
#X connect 22 0 58 0;
#X connect 22 1 26 0;
#X connect 23 0 25 0;
#X connect 24 0 19 0;
#X connect 25 0 24 0;
#X connect 26 0 23 0;
#X connect 28 0 29 0;
#X connect 29 0 36 0;
#X connect 30 0 31 0;
#X connect 31 0 59 0;
#X connect 31 1 35 0;
#X connect 32 0 34 0;
#X connect 33 0 28 0;
#X connect 34 0 33 0;
#X connect 35 0 32 0;
#X connect 37 0 38 0;
#X connect 38 0 45 0;
#X connect 39 0 40 0;
#X connect 40 0 60 0;
#X connect 40 1 44 0;
#X connect 41 0 43 0;
#X connect 42 0 37 0;
#X connect 43 0 42 0;
#X connect 44 0 41 0;
#X connect 46 0 47 0;
#X connect 47 0 54 0;
#X connect 48 0 49 0;
#X connect 49 0 61 0;
#X connect 49 1 53 0;
#X connect 50 0 52 0;
#X connect 51 0 46 0;
#X connect 52 0 51 0;
#X connect 53 0 50 0;
#X connect 55 0 2 0;
#X connect 56 0 0 0;
#X connect 57 0 10 0;
#X connect 58 0 19 0;
#X connect 59 0 28 0;
#X connect 60 0 37 0;
#X connect 61 0 46 0;
#X restore 424 118 pd set-gain-via-knobs;
#N canvas 233 165 1015 426 set-mute-via-switches 0;
#X obj 90 367 outlet~;
#X obj 90 90 inlet;
#X msg 483 213 S1 \$1 0 0;
#X msg 559 214 S2 \$1 0 0;
#X msg 636 214 S3 \$1 0 0;
#X msg 715 215 S4 \$1 0 0;
#X msg 793 215 S5 \$1 0 0;
#X msg 871 215 S6 \$1 0 0;
#X obj 90 138 route S1 S2 S3 S4 S5 S6, f 52;
#X obj 90 243 == 0;
#X obj 150 243 == 0;
#X obj 210 243 == 0;
#X obj 270 243 == 0;
#X obj 330 243 == 0;
#X obj 390 243 == 0;
#X msg 90 270 \$1 10;
#X obj 90 324 line~;
#X msg 150 270 \$1 10;
#X obj 150 324 line~;
#X msg 210 270 \$1 10;
#X obj 210 324 line~;
#X msg 270 270 \$1 10;
#X obj 270 324 line~;
#X msg 329 270 \$1 10;
#X obj 329 324 line~;
#X msg 390 270 \$1 10;
#X obj 390 324 line~;
#X obj 448 256 loadbang;
#X msg 448 280 1;
#X obj 636 279 send toHost;
#X obj 150 367 outlet~;
#X obj 210 367 outlet~;
#X obj 270 367 outlet~;
#X obj 329 367 outlet~;
#X obj 390 367 outlet~;
#X text 241 63 We route the swicth button values via symbols from [receive fromHost] and use it to mute the audio. We also using the red channel in the RGB triplet for the swicthes to display when the button is pressed., f 71;
#X connect 1 0 8 0;
#X connect 2 0 29 0;
#X connect 3 0 29 0;
#X connect 4 0 29 0;
#X connect 5 0 29 0;
#X connect 6 0 29 0;
#X connect 7 0 29 0;
#X connect 8 0 9 0;
#X connect 8 0 2 0;
#X connect 8 1 10 0;
#X connect 8 1 3 0;
#X connect 8 2 11 0;
#X connect 8 2 4 0;
#X connect 8 3 12 0;
#X connect 8 3 5 0;
#X connect 8 4 13 0;
#X connect 8 4 6 0;
#X connect 8 5 14 0;
#X connect 8 5 7 0;
#X connect 9 0 15 0;
#X connect 10 0 17 0;
#X connect 11 0 19 0;
#X connect 12 0 21 0;
#X connect 13 0 23 0;
#X connect 14 0 25 0;
#X connect 15 0 16 0;
#X connect 16 0 0 0;
#X connect 17 0 18 0;
#X connect 18 0 30 0;
#X connect 19 0 20 0;
#X connect 20 0 31 0;
#X connect 21 0 22 0;
#X connect 22 0 32 0;
#X connect 23 0 24 0;
#X connect 24 0 33 0;
#X connect 25 0 26 0;
#X connect 26 0 34 0;
#X connect 27 0 28 0;
#X connect 28 0 16 0;
#X connect 28 0 26 0;
#X connect 28 0 24 0;
#X connect 28 0 22 0;
#X connect 28 0 20 0;
#X connect 28 0 18 0;
#X restore 396 295 pd set-mute-via-switches;
#X text 69 38 Set volume gain of the inputs with the knobs and mute signals with switches. See subpatches., f 39;
#X obj 396 43 receive fromHost;
#X connect 0 0 2 0;
#X connect 0 1 3 0;
#X connect 0 2 4 0;
#X connect 0 3 5 0;
#X connect 0 4 6 0;
#X connect 0 5 7 0;
#X connect 2 0 8 0;
#X connect 3 0 9 0;
#X connect 4 0 10 0;
#X connect 5 0 11 0;
#X connect 6 0 12 0;
#X connect 7 0 13 0;
#X connect 8 0 1 0;
#X connect 8 0 14 0;
#X connect 9 0 1 1;
#X connect 9 0 14 1;
#X connect 10 0 1 2;
#X connect 10 0 14 2;
#X connect 11 0 1 3;
#X connect 11 0 14 3;
#X connect 12 0 1 4;
#X connect 12 0 14 4;
#X connect 13 0 1 5;
#X connect 13 0 14 5;
#X connect 15 0 2 1;
#X connect 15 1 3 1;
#X connect 15 2 4 1;
#X connect 15 3 5 1;
#X connect 15 4 6 0;
#X connect 15 5 7 1;
#X connect 16 0 8 1;
#X connect 16 1 9 1;
#X connect 16 2 10 1;
#X connect 16 3 11 1;
#X connect 16 4 12 1;
#X connect 16 5 13 1;
#X connect 18 0 15 0;
#X connect 18 0 16 0;
