#N canvas 399 92 836 683 12;
#X obj 141 80 adc~ 1 2 3 4 5 6, f 47;
#X obj 142 311 dac~ 1 2 3 4 5 6, f 47;
#X obj 141 148 *~ 1;
#X obj 206 148 *~ 1;
#X obj 270 148 *~ 1;
#X obj 336 148 *~ 1;
#X obj 400 148 *~ 1;
#X obj 466 148 *~ 1;
#X msg 239 434 L3 \$1 0 0;
#X msg 315 434 L4 \$1 0 0;
#X msg 445 434 L6 \$1 0 0;
#X msg 89 434 L1 \$1 0 0;
#X msg 164 434 L2 \$1 0 0;
#X msg 370 434 L5 \$1 0 0;
#X obj 142 279 *~ 1;
#X obj 207 278 *~ 1;
#X obj 271 278 *~ 1;
#X obj 337 278 *~ 1;
#X obj 401 278 *~ 1;
#X obj 467 278 *~ 1;
#X msg 72 566 S1 \$1 0 0;
#X msg 147 567 S2 \$1 0 0;
#X msg 222 567 S3 \$1 0 0;
#X msg 298 568 S4 \$1 0 0;
#X msg 373 568 S5 \$1 0 0;
#X msg 448 568 S6 \$1 0 0;
#X obj 166 120 route K1 K2 K3 K4 K5 K6, f 56;
#X obj 167 219 route S1 S2 S3 S4 S5 S6, f 56;
#X obj 167 248 == 0;
#X obj 232 248 == 0;
#X obj 296 248 == 0;
#X obj 362 248 == 0;
#X obj 426 248 == 0;
#X obj 492 248 == 0;
#X obj 89 405 route K1 K2 K3 K4 K5 K6, f 65;
#X obj 72 537 route S1 S2 S3 S4 S5 S6, f 65;
#X text 588 414 Just using the red channels in the RGB triplet for the LED., f 21;
#X obj 57 80 r fromRack;
#X obj 72 365 r fromRack;
#X text 218 27 Set volume gain of the inputs with the knobs and mute signals with switches., f 39;
#X text 589 470 The higher the knob value the stronger the red color is., f 21;
#X text 593 548 Setting red color for the switch when pressed., f 21;
#X obj 241 486 send toRack;
#X obj 222 613 send toRack;
#X text 595 153 The best practice is to interpolate here with [line~] \, but this is just a simple example., f 20;
#X connect 0 0 2 0;
#X connect 0 1 3 0;
#X connect 0 2 4 0;
#X connect 0 3 5 0;
#X connect 0 4 6 0;
#X connect 0 5 7 0;
#X connect 2 0 14 0;
#X connect 3 0 15 0;
#X connect 4 0 16 0;
#X connect 5 0 17 0;
#X connect 6 0 18 0;
#X connect 7 0 19 0;
#X connect 8 0 42 0;
#X connect 9 0 42 0;
#X connect 10 0 42 0;
#X connect 11 0 42 0;
#X connect 12 0 42 0;
#X connect 13 0 42 0;
#X connect 14 0 1 0;
#X connect 15 0 1 1;
#X connect 16 0 1 2;
#X connect 17 0 1 3;
#X connect 18 0 1 4;
#X connect 19 0 1 5;
#X connect 20 0 43 0;
#X connect 21 0 43 0;
#X connect 22 0 43 0;
#X connect 23 0 43 0;
#X connect 24 0 43 0;
#X connect 25 0 43 0;
#X connect 26 0 2 1;
#X connect 26 1 3 1;
#X connect 26 2 4 1;
#X connect 26 3 5 1;
#X connect 26 4 6 1;
#X connect 26 5 7 1;
#X connect 27 0 28 0;
#X connect 27 1 29 0;
#X connect 27 2 30 0;
#X connect 27 3 31 0;
#X connect 27 4 32 0;
#X connect 27 5 33 0;
#X connect 28 0 14 1;
#X connect 29 0 15 1;
#X connect 30 0 16 1;
#X connect 31 0 17 1;
#X connect 32 0 18 1;
#X connect 33 0 19 1;
#X connect 34 0 11 0;
#X connect 34 1 12 0;
#X connect 34 2 8 0;
#X connect 34 3 9 0;
#X connect 34 4 13 0;
#X connect 34 5 10 0;
#X connect 35 0 20 0;
#X connect 35 1 21 0;
#X connect 35 2 22 0;
#X connect 35 3 23 0;
#X connect 35 4 24 0;
#X connect 35 5 25 0;
#X connect 37 0 26 0;
#X connect 37 0 27 0;
#X connect 38 0 34 0;
#X connect 38 0 35 0;
