#N canvas 114 88 1306 556 12;
#X obj 18 92 adc~ 1 2 3 4 5 6, f 47;
#X obj 18 513 dac~ 1 2 3 4 5 6, f 47;
#X msg 843 343 S1 \$1 0 0;
#X msg 918 344 S2 \$1 0 0;
#X msg 993 344 S3 \$1 0 0;
#X msg 1069 345 S4 \$1 0 0;
#X msg 1144 345 S5 \$1 0 0;
#X msg 1219 345 S6 \$1 0 0;
#X text 51 26 Set volume gain of the inputs with the knobs and mute signals with switches., f 39;
#X obj 18 240 *~;
#X obj 83 240 *~;
#X obj 147 240 *~;
#X obj 213 240 *~;
#X obj 277 240 *~;
#X obj 343 240 *~;
#X obj 392 75 route K1 K2 K3 K4 K5 K6, f 42;
#X obj 376 35 r fromHost;
#X msg 392 144 \$1 10;
#X obj 392 171 line~;
#X msg 440 144 \$1 10;
#X obj 440 171 line~;
#X msg 489 144 \$1 10;
#X obj 489 171 line~;
#X msg 537 144 \$1 10;
#X obj 537 171 line~;
#X msg 585 144 \$1 10;
#X obj 585 171 line~;
#X msg 634 144 \$1 10;
#X obj 634 171 line~;
#X obj 376 261 route S1 S2 S3 S4 S5 S6, f 42;
#X obj 376 326 == 0;
#X obj 424 326 == 0;
#X obj 473 326 == 0;
#X obj 520 326 == 0;
#X obj 570 326 == 0;
#X obj 618 326 == 0;
#X msg 376 353 \$1 10;
#X obj 376 407 line~;
#X msg 424 353 \$1 10;
#X obj 424 407 line~;
#X msg 473 353 \$1 10;
#X obj 473 407 line~;
#X msg 521 353 \$1 10;
#X obj 521 407 line~;
#X msg 569 353 \$1 10;
#X obj 569 407 line~;
#X msg 618 353 \$1 10;
#X obj 618 407 line~;
#X obj 667 338 loadbang;
#X msg 667 362 1;
#X obj 18 481 *~;
#X obj 83 481 *~;
#X obj 148 481 *~;
#X obj 213 481 *~;
#X obj 278 481 *~;
#X obj 344 481 *~;
#X msg 842 136 L3 \$1 0 0;
#X msg 918 136 L4 \$1 0 0;
#X msg 1068 136 L6 \$1 0 0;
#X msg 767 136 L2 \$1 0 0;
#X msg 993 136 L5 \$1 0 0;
#X msg 692 136 L1 \$1 0 0;
#X obj 761 399 send toHost;
#X text 786 38 Using the red channel in the RGB triplet for the LED lights and swicthes., f 26;
#X obj 484 38 print;
#X connect 0 0 9 0;
#X connect 0 1 10 0;
#X connect 0 2 11 0;
#X connect 0 3 12 0;
#X connect 0 4 13 0;
#X connect 0 5 14 0;
#X connect 2 0 62 0;
#X connect 3 0 62 0;
#X connect 4 0 62 0;
#X connect 5 0 62 0;
#X connect 6 0 62 0;
#X connect 7 0 62 0;
#X connect 9 0 50 0;
#X connect 10 0 51 0;
#X connect 11 0 52 0;
#X connect 12 0 53 0;
#X connect 13 0 54 0;
#X connect 14 0 55 0;
#X connect 15 0 17 0;
#X connect 15 0 61 0;
#X connect 15 1 19 0;
#X connect 15 1 59 0;
#X connect 15 2 21 0;
#X connect 15 2 56 0;
#X connect 15 3 23 0;
#X connect 15 3 57 0;
#X connect 15 4 25 0;
#X connect 15 4 60 0;
#X connect 15 5 27 0;
#X connect 15 5 58 0;
#X connect 16 0 15 0;
#X connect 16 0 29 0;
#X connect 16 0 64 0;
#X connect 17 0 18 0;
#X connect 18 0 9 1;
#X connect 19 0 20 0;
#X connect 20 0 10 1;
#X connect 21 0 22 0;
#X connect 22 0 11 1;
#X connect 23 0 24 0;
#X connect 24 0 12 1;
#X connect 25 0 26 0;
#X connect 26 0 13 1;
#X connect 27 0 28 0;
#X connect 28 0 14 1;
#X connect 29 0 30 0;
#X connect 29 0 2 0;
#X connect 29 1 31 0;
#X connect 29 1 3 0;
#X connect 29 2 32 0;
#X connect 29 2 4 0;
#X connect 29 3 33 0;
#X connect 29 3 5 0;
#X connect 29 4 34 0;
#X connect 29 4 6 0;
#X connect 29 5 35 0;
#X connect 29 5 7 0;
#X connect 30 0 36 0;
#X connect 31 0 38 0;
#X connect 32 0 40 0;
#X connect 33 0 42 0;
#X connect 34 0 44 0;
#X connect 35 0 46 0;
#X connect 36 0 37 0;
#X connect 37 0 50 1;
#X connect 38 0 39 0;
#X connect 39 0 51 1;
#X connect 40 0 41 0;
#X connect 41 0 52 1;
#X connect 42 0 43 0;
#X connect 43 0 53 1;
#X connect 44 0 45 0;
#X connect 45 0 54 1;
#X connect 46 0 47 0;
#X connect 47 0 55 1;
#X connect 48 0 49 0;
#X connect 49 0 37 0;
#X connect 49 0 47 0;
#X connect 49 0 45 0;
#X connect 49 0 43 0;
#X connect 49 0 41 0;
#X connect 49 0 39 0;
#X connect 50 0 1 0;
#X connect 51 0 1 1;
#X connect 52 0 1 2;
#X connect 53 0 1 3;
#X connect 54 0 1 4;
#X connect 55 0 1 5;
#X connect 56 0 62 0;
#X connect 57 0 62 0;
#X connect 58 0 62 0;
#X connect 59 0 62 0;
#X connect 60 0 62 0;
#X connect 61 0 62 0;
