#N canvas 558 63 553 654 12;
#X obj 110 97 dac~ 1 2 3 4 5 6;
#X obj 112 31 adc~ 1 2 3 4 5 6;
#X obj 87 206 route K1 K2 K3 K4 K5 K6;
#X obj 245 241 route S1 S2 S3 S4 S5 S6;
#X text 265 204 knobs;
#X obj 94 295 loadbang;
#X text 238 24 receive audio from the module input, f 20;
#X text 240 89 send audio to the module output, f 19;
#X msg 110 337 \; toHost L1 1 0 0 \, S1 1 0 0 \, display this text will print, f 16;
#X text 256 306 Use "toRack" to send messages to the Host module. "L1" \, "L2" \, etc send RGB values to leds \, while "S1" \, "S2" send RGB values to the switch button and the 'display' message prints to the module's console., f 24;
#X text 218 157 receive control data from the Host module, f 20;
#X obj 87 166 receive fromHost;
#N canvas 626 260 737 375 midi-input-output-support 0;
#X obj 86 167 midiin;
#X obj 86 205 pack f f;
#X obj 71 118 send toHost;
#X obj 71 47 loadbang;
#X obj 86 242 print RAW MIDI;
#X text 60 286 MIDI Input from set VCV Rack devices are sent to MIDI Input objects in Pd., f 28;
#X msg 71 82 midiindriver 0 \, midiindev 0;
#X text 179 108 ('-1' sets no device);
#X obj 412 105 send toHost;
#X obj 412 34 loadbang;
#X text 520 95 ('-1' sets no device);
#X text 492 32 Set MIDI OUT driver/device;
#X text 151 45 Set MIDI IN driver/device;
#X msg 412 69 midioutdriver 0 \, midioutdev 0;
#X obj 424 247 noteout;
#X msg 424 210 69 \$1;
#X obj 424 180 * 127;
#X obj 424 149 r note;
#X text 397 297 MIDI Output from Pd sends to VCV Rack devices., f 25;
#X connect 0 0 1 0;
#X connect 0 1 1 1;
#X connect 1 0 4 0;
#X connect 3 0 6 0;
#X connect 6 0 2 0;
#X connect 9 0 13 0;
#X connect 13 0 8 0;
#X connect 15 0 14 0;
#X connect 16 0 15 0;
#X connect 17 0 16 0;
#X restore 171 551 pd midi-input-output-support;
#X obj 245 269 s note;
#X text 420 239 switches;
#N canvas 733 260 764 416 net-receive/send/OSC 0;
#X obj 86 167 midiin;
#X obj 86 205 pack f f;
#X obj 71 118 send toHost;
#X obj 71 47 loadbang;
#X obj 86 242 print RAW MIDI;
#X text 60 286 MIDI Input from set VCV Rack devices are sent to MIDI Input objects in Pd., f 28;
#X msg 71 82 midiindriver 0 \, midiindev 0;
#X text 179 108 ('-1' sets no device);
#X obj 412 105 send toHost;
#X obj 412 34 loadbang;
#X text 520 95 ('-1' sets no device);
#X text 492 32 Set MIDI OUT driver/device;
#X text 151 45 Set MIDI IN driver/device;
#X msg 412 69 midioutdriver 0 \, midioutdev 0;
#X obj 424 247 noteout;
#X msg 424 210 69 \$1;
#X obj 424 180 * 127;
#X obj 424 149 r note;
#X text 397 297 MIDI Output from Pd sends to VCV Rack devices., f 25;
#X connect 0 0 1 0;
#X connect 0 1 1 1;
#X connect 1 0 4 0;
#X connect 3 0 6 0;
#X connect 6 0 2 0;
#X connect 9 0 13 0;
#X connect 13 0 8 0;
#X connect 15 0 14 0;
#X connect 16 0 15 0;
#X connect 17 0 16 0;
#X restore 184 591 pd net-receive/send/OSC;
#X obj 95 485 print loadbang;
#X text 220 472 [print] outputs to the terminal if you open VCV Rack via the terminal., f 31;
#X obj 431 538 key;
#X floatatom 431 562 5 0 0 0 - - - 0;
#X obj 418 599 s toHost;
#X connect 2 6 3 0;
#X connect 3 0 13 0;
#X connect 5 0 8 0;
#X connect 5 0 16 0;
#X connect 11 0 2 0;
#X connect 18 0 19 0;
#X connect 19 0 20 0;
